
        <svg xmlns="http://www.w3.org/2000/svg" xmlns:xlink="http://www.w3.org/1999/xlink" version="1.1" width="3187.5" 
        height="1192.0727243537806" viewBox="0 0 3187.5 1192.0727243537806">
			<rect fill="#ffffff" width="3187.5" height="1192.0727243537806"/>
			<g transform="scale(9.375) translate(10, 10)">
				<defs id="SvgjsDefs11537"></defs><g id="SvgjsG11538" featureKey="4K7G0D-0" transform="matrix(1.3135187143246114,0,0,1.3135187143246114,-15.675532356792617,-11.54037908571794)" fill="#0c8781"><g xmlns="http://www.w3.org/2000/svg"><path d="M35.742,42.748c-13.147,0-23.808,10.658-23.808,23.808c0,13.148,10.66,23.808,23.808,23.808   s23.807-10.659,23.807-23.808C59.549,53.406,48.89,42.748,35.742,42.748z M15.226,66.556c0-4.351,1.356-8.382,3.667-11.702   l0.264,0.2l-0.159,0.641l0.588,0.161L19.478,55l0.481-0.054v-1.123h0.481c0,0,0.086,0.218,0.174,0.446   c0.098,0.252,0.201,0.516,0.201,0.516l0.535,0.59c0,0-0.642,0.159-0.854,0.159c-0.216,0-0.108,0.856-0.108,0.856l0.749,0.267   l0.483-0.894l1.121-1.246l0.534-1.658l1.017-0.963l-0.589-0.426l0.644-0.43l0.054-0.589l-1.872,0.536l-0.061-0.071   c1.02-0.866,2.125-1.634,3.301-2.29l0.878,0.382l-0.589,1.123h-1.177l-0.214,1.016h0.964l1.391-0.855l0.962-0.962l0.16-0.909   l-1.39-0.106l0.962-0.643l0.908,0.161l-0.158,0.962l1.229-0.75l0.215,0.589l0.268,0.856l-0.696,0.855l-0.748,0.695l-1.125-0.16   l0.536,1.123l-1.016-0.16l-1.713,1.765l0.429,0.589l1.391-0.108l1.177-0.375l1.499-0.158l0.694-0.16c0,0,0-0.429-0.054-0.695   c-0.054-0.268,0.535,0.053,0.535,0.053l0.643-0.374l0.48-1.498l1.766-0.804l-0.268-0.428l0.429-0.534L32.746,48.9l0.375-0.535   l-1.767-0.589h-0.909l0.32-0.802l0.375-0.375l-0.03-0.03c1.488-0.343,3.037-0.53,4.632-0.53c2.483,0,4.862,0.441,7.066,1.25   l-0.055,0.125l-0.891-0.059v0.535l0.357,0.237v0.476l0.298,0.415l-1.07-0.653l-0.713,0.357l0.356,0.832l0.179,0.951l0.476,0.535   l1.127,0.179l-0.235,0.475l-0.239,0.715l1.011,0.653l-0.06,0.297l-1.901-1.604l-0.117,0.595l0.831,0.831l0.476,0.179l-1.071,0.237   l-0.118,0.535l-0.772-0.773l-0.477-1.009l-0.177-1.012l-0.477,0.594l0.356,1.427l0.594,0.418l-0.236,1.365l-0.357-0.178l0.06,0.714   l-0.536-0.061l-0.533-0.773h-0.653l-0.951-0.119l-0.952,0.061l-0.892,0.714l-0.594,1.01l-1.249,0.952l-0.119,0.533v0.656   l0.298,0.653l0.595-0.477l0.177,0.357l0.299,0.534l0.059,0.12l0.297,0.356l0.536-0.355l-0.06-1.309l0.653-0.833   c0,0,0.033-0.141,0.069-0.303c0.051-0.217,0.108-0.469,0.108-0.469l0.238-0.656l0.417,0.061l-0.119,0.535l-0.239,1.188l1.131-0.118   l0.417,0.118l-0.893,0.24l0.119,0.594l-1.013,0.652l0.061,0.655l-0.891,0.238l-0.178,0.475l-0.714-0.237h-0.476V59.66l-0.536,0.18   v0.534l-1.486,1.189L31.52,61.86l-0.355,0.416l-1.188-0.298l-0.061,0.536l0.773,0.297l-0.06,1.069l-2.142-0.06l-0.296,0.476   l-0.298,0.832l-0.356,0.716l0.535,0.594l0.595,0.712l1.903-0.595l0.119-0.713l0.417-0.357l0.713-0.238l-0.06-0.475l0.654-0.179   l0.951-0.179l0.595,0.713l1.07,0.774l0.475,0.771v0.357l0.594-0.357l-0.296-0.533l0.119-0.597l-0.536-0.236l-0.475-0.653   l0.297-0.953l0.534,0.773l0.771,0.596l0.297,1.07l0.774,0.593l0.179,0.654l0.357-0.772l-0.119-0.357l0.177-0.297l1.128-0.951   l0.239-1.189l0.477-0.356l0.593,0.06l0.894-0.893l0.058,0.715l1.307,0.415v0.654h-1.068l-1.605,0.832l-1.307,0.714l0.355,0.772   l1.189,0.237l0.654,0.298l0.713-0.475l0.059,2.021l-2.021,0.416l-2.14-0.595l-0.832,0.654l0.356,0.356l-0.655-0.119l-2.078-0.772   l-0.595,0.06l-0.477-0.773V67.09h-1.07l-0.594-0.119l-1.902,0.417l-1.486-0.119l-0.654,0.357l-0.416,0.06l-0.237,0.771   l-1.367,0.951l-1.903,1.428l-0.119,1.841l-0.534,1.19l0.059,0.712l0.476,0.834l1.368,2.317l1.427,0.654l2.377,0.179l-0.119-1.012   l-0.534-0.296l0.237-0.536l0.416,0.476l0.417,1.248l1.782,0.12l0.714,0.713l1.011,0.416l0.118,1.724l1.071,1.367l1.01,1.783   l-0.892,1.07l0.911,1.416C24.007,86.656,15.226,77.634,15.226,66.556z M42.772,85.836l2.48-1.804l-0.892-2.199l2.854-3.745   l0.89-2.378l0.416-1.309l-1.485,0.715l-0.892,0.179l-2.198-1.368L43.29,72.44l-0.831-0.832L41.39,69.23l0.891,0.714l1.666,1.843   l0.594,0.831l1.188,0.596l0.356,1.546l1.428-0.952l1.724-2.141l0.832-2.198l-0.654-0.534l-0.357-0.655l-0.416,0.773l-0.831,0.951   l-1.19-1.31l-0.355-1.009l0.832,0.179l0.832,0.415l1.189-0.415l0.714,0.237l1.9-1.308l1.071,0.594l0.653-0.356l1.422,2.238   l0.703-0.672l0.014-0.853l0.06-2.557l0.437-1.211c0.107,0.845,0.168,1.704,0.168,2.578C56.259,75.417,50.642,82.966,42.772,85.836z   "></path><path d="M87.597,20.826L69.667,8.96c-0.231-0.155-0.519-0.21-0.793-0.151l-19.859,4.193c-0.4,0.084-0.715,0.396-0.805,0.798   l-0.119,0.537c-0.094,0.423,0.082,0.86,0.445,1.1l8.314,5.503l-0.339,1.533c-3.004,2.252-4.957,5.83-4.957,9.871   c0,6.816,5.529,12.346,12.342,12.346c6.814,0,12.344-5.529,12.344-12.346c0-1.464-0.269-2.863-0.737-4.166   c0.185-0.236,0.312-0.488,0.371-0.755l0.414-1.876l5.364-1.133c0.667,0.943,1.103,2.088,1.212,3.547   c-0.545,0.282-0.922,0.844-0.922,1.5c0,0.551,0.267,1.034,0.674,1.344c-0.461,2.352-1.076,6.673,0.15,8.589   c0.361,0.563,0.873,0.924,1.479,1.039c0.048,0.009,0.096,0.014,0.144,0.014c0.356,0,0.674-0.253,0.744-0.617   c0.078-0.411-0.192-0.809-0.604-0.887c-0.133-0.025-0.308-0.09-0.485-0.367c-0.433-0.676-0.534-2.01-0.454-3.516   c0.374,1.168,0.949,2.219,1.836,2.803c0.352,0.232,0.821,0.133,1.051-0.217s0.133-0.82-0.217-1.051   c-1.192-0.785-1.695-3.477-1.803-5.66c0.52-0.289,0.875-0.837,0.875-1.474c0-0.667-0.389-1.238-0.949-1.514   c-0.1-1.555-0.504-2.82-1.128-3.871l3.861-0.816c0.401-0.084,0.716-0.396,0.805-0.797l0.119-0.537   C88.135,21.503,87.958,21.064,87.597,20.826z M67.042,16.721c0.017-0.137,0.156-0.249,0.415-0.304   c0.516-0.108,1.313,0.054,1.78,0.362c0.233,0.154,0.34,0.316,0.322,0.454l-0.076,0.376c-0.018,0.137-0.156,0.248-0.414,0.303   c-0.518,0.109-1.313-0.053-1.78-0.361c-0.233-0.155-0.34-0.317-0.323-0.454L67.042,16.721z"></path><path d="M63.896,47.08c-2.799,0-5.464,0.698-7.888,1.959c4.069,4.702,6.54,10.824,6.54,17.517c0,4.897-1.326,9.489-3.63,13.444   h18.437c3.72,0,6.73-3.68,6.73-8.23C84.086,58.141,75.043,47.08,63.896,47.08z"></path></g></g><g id="SvgjsG11539" featureKey="wPuqcM-0" transform="matrix(2.176278527521899,0,0,2.176278527521899,117.73667041439566,16.24700857588761)" fill="#0c8781"><path d="M3.9 5.859999999999999 l0 14.14 l-2.86 0 l0 -14.14 l2.86 0 z M11.100000000000001 9.42 c2.36 0 5.62 1.78 5 6.38 l-7.56 0 c0.36 1.3 1.44 1.98 2.84 1.98 c1.3 0 1.8 -0.3 2.54 -0.7 l1.58 1.54 c-0.9 0.94 -2.18 1.58 -4.22 1.58 c-2.6 0 -5.64 -1.78 -5.64 -5.36 c0 -3.64 3.1 -5.42 5.46 -5.42 z M11.100000000000001 11.86 c-1.04 0 -2.14 0.64 -2.52 1.92 l5 0 c-0.32 -1.28 -1.46 -1.92 -2.48 -1.92 z M22.66 17.6 c0.54 0 0.94 -0.06 1.38 -0.22 l0 2.4 c-0.44 0.2 -1.12 0.34 -2.12 0.34 c-1.62 0 -2.98 -0.56 -2.98 -3.5 l0 -4.66 l-1.46 0 l0 -2.36 l1.46 0 l0 -2.44 l2.86 0 l0 2.44 l2.22 0 l0 2.36 l-2.22 0 l0 4.64 c0 0.48 0.14 1 0.86 1 z M28.34 6 l0 3.5 l-2.92 0 l0 -3.5 l2.92 0 z M34.06 12.719999999999999 c-0.32 -0.74 -0.78 -1.02 -1.34 -1.02 c-0.52 0 -1 0.32 -1 0.78 c0 0.44 0.28 0.72 0.84 0.92 l1.26 0.46 c1.52 0.54 3 1.1 3 3.12 c0 2.08 -2.06 3.26 -4.16 3.26 c-1.9 0 -3.7 -1.12 -4.12 -2.94 l2.26 -0.7 c0.26 0.7 0.82 1.36 1.86 1.36 c0.74 0 1.3 -0.48 1.3 -1 c0 -0.34 -0.24 -0.64 -0.86 -0.88 l-1.2 -0.42 c-2.04 -0.74 -2.98 -1.8 -2.98 -3.22 c0 -1.88 1.74 -3.02 3.68 -3.02 c1.96 0 3.26 1.06 3.86 2.68 z M47.32 5.859999999999999 l0 14.14 l-2.86 0 l0 -14.14 l2.86 0 z M54.519999999999996 9.42 c2.36 0 5.62 1.78 5 6.38 l-7.56 0 c0.36 1.3 1.44 1.98 2.84 1.98 c1.3 0 1.8 -0.3 2.54 -0.7 l1.58 1.54 c-0.9 0.94 -2.18 1.58 -4.22 1.58 c-2.6 0 -5.64 -1.78 -5.64 -5.36 c0 -3.64 3.1 -5.42 5.46 -5.42 z M54.519999999999996 11.86 c-1.04 0 -2.14 0.64 -2.52 1.92 l5 0 c-0.32 -1.28 -1.46 -1.92 -2.48 -1.92 z M69.02 9.6 l2.86 0 l0 10.4 l-2.86 0 l0 -1.28 c-0.06 0.42 -1.08 1.48 -2.88 1.48 c-2.38 0 -5.14 -1.72 -5.14 -5.42 c0 -3.58 2.76 -5.36 5.14 -5.36 c1.8 0 2.82 1.12 2.88 1.34 l0 -1.16 z M66.53999999999999 17.66 c1.4 0 2.62 -0.96 2.62 -2.88 c0 -1.86 -1.22 -2.82 -2.62 -2.82 c-1.44 0 -2.76 0.98 -2.76 2.82 c0 1.9 1.32 2.88 2.76 2.88 z M80.42 9.44 c0.26 0 0.5 0 0.76 0.06 l0 2.74 c-0.24 -0.06 -0.48 -0.06 -0.68 -0.06 c-1.92 0 -3.5 1.38 -3.68 3.38 l0 4.44 l-2.86 0 l0 -10.4 l2.86 0 l0 2.6 c0.46 -1.58 1.72 -2.76 3.6 -2.76 z M89 9.44 c1.98 0 3.94 1.3 3.94 4.58 l0 5.98 l-2.86 0 l0 -5.78 c0 -1.7 -0.66 -2.28 -1.76 -2.28 c-1.52 0 -2.42 1.44 -2.64 2.16 l0 5.9 l-2.86 0 l0 -10.4 l2.86 0 l0 1.92 c0.2 -0.54 1.32 -2.08 3.32 -2.08 z"></path></g><g id="SvgjsG11540" featureKey="Li3fkV-0" transform="matrix(0.41518754861816515,0,0,0.41518754861816515,139.37721872656698,67.97388550713632)" fill="#0c8781"><path d="M5.02 20.24 q-1.76 0 -2.64 -0.99 t-0.88 -3.03 l0 -5.46 l1.2 0 l0 5.4 q0 1.5 0.57 2.25 t1.75 0.75 q1.46 0 2.32 -1 t0.88 -2.82 l0 -4.58 l1.2 0 l0 6.74 q0.04 1.02 0.1 2.5 l-1.2 0 q-0.02 -1.14 -0.08 -1.62 l-0.06 0 q-0.4 0.86 -1.27 1.36 t-1.89 0.5 z M20.782000000000004 15.379999999999999 q0 1.58 1.12 2.66 t2.74 1.12 q1.62 0 2.63 -1.07 t1.03 -2.71 q0 -1.6 -1 -2.68 t-2.68 -1.1 q-1.62 0 -2.72 1.1 t-1.12 2.68 z M24.642000000000003 10.52 q2.12 0 3.48 1.37 t1.38 3.49 q0 2.12 -1.36 3.48 t-3.5 1.38 q-1.18 0 -2.19 -0.5 t-1.51 -1.36 l-0.04 0 l0 6.18 l-1.2 0 l0 -13.8 l1.2 0 l0 1.62 l0.04 0 q0.48 -0.84 1.5 -1.35 t2.2 -0.51 z M40.104 15.379999999999999 q0 1.66 1.04 2.72 t2.62 1.06 q1.56 0 2.69 -1.07 t1.17 -2.71 q0 -1.56 -1.11 -2.66 t-2.77 -1.12 q-1.56 0 -2.59 1.06 t-1.05 2.72 z M47.504 4.880000000000001 l1.2 0 l0 15.12 l-1.2 0 l0 -1.62 l-0.04 0 q-0.5 0.88 -1.53 1.37 t-2.17 0.49 q-2.06 0 -3.44 -1.35 t-1.42 -3.51 q0 -2.06 1.35 -3.44 t3.51 -1.42 q1.18 0 2.18 0.49 t1.52 1.37 l0.04 0 l0 -7.5 z M59.666000000000004 17.44 q0 0.76 0.61 1.24 t1.51 0.48 q1.62 0 2.41 -0.85 t0.79 -2.31 l0 -0.64 l-1.44 0 q-1.84 0 -2.86 0.56 t-1.02 1.52 z M62.386 10.52 q1.86 0 2.76 0.86 t0.92 2.4 l0 2.74 q0 2.24 0.18 3.48 l-1.12 0 q-0.12 -0.62 -0.12 -1.5 l-0.04 0 q-1 1.74 -3.22 1.74 q-1.5 0 -2.38 -0.74 t-0.9 -2 q0 -1.54 1.33 -2.32 t3.71 -0.78 l1.48 0 l0 -0.54 q0 -1.14 -0.7 -1.7 t-1.9 -0.56 q-1.6 0 -2.82 1.04 l-0.7 -0.82 q0.66 -0.64 1.63 -0.97 t1.89 -0.33 z M77.188 8.1 l1.2 0 l0 2.66 l2.64 0 l0 1.08 l-2.64 0 l0 6.04 q0 0.58 0.34 0.93 t0.94 0.35 q0.66 0 1.36 -0.32 l0.1 1.08 q-0.9 0.32 -1.58 0.32 q-1.18 0 -1.77 -0.66 t-0.59 -1.7 l0 -6.04 l-2 0 l0 -1.08 l2 0 l0 -2.66 z M97.65 14.6 q0 -1.26 -0.94 -2.13 t-2.28 -0.87 q-1.3 0 -2.24 0.87 t-1.1 2.13 l6.56 0 z M94.51 10.52 q1.92 0 3.12 1.24 t1.22 3.2 l0 0.72 l-7.76 0 q0.08 1.56 1.03 2.51 t2.47 0.97 q0.94 0 1.79 -0.45 t1.31 -1.19 l0.88 0.74 q-1.3 1.98 -4 1.98 q-2.12 -0.02 -3.39 -1.38 t-1.29 -3.5 q0 -2.08 1.31 -3.45 t3.31 -1.39 z M121.254 10.76 l3.06 7.78 l2.98 -7.78 l1.28 0 l-4.74 12.06 q-0.78 1.98 -2.56 1.98 q-0.56 0 -1.18 -0.18 l0.12 -1.12 q0.66 0.22 1.08 0.22 q0.46 0 0.82 -0.32 t0.7 -1.16 l0.86 -2.2 l-3.76 -9.28 l1.34 0 z M138.39600000000002 15.379999999999999 q0 1.66 1.04 2.72 t2.62 1.06 q1.64 0 2.65 -1.08 t1.01 -2.7 q0 -1.6 -1 -2.68 t-2.68 -1.1 q-1.62 0 -2.62 1.08 t-1.02 2.7 z M142.056 10.52 q2.12 0 3.48 1.38 t1.38 3.48 q0 2.14 -1.39 3.49 t-3.47 1.37 q-2.18 -0.02 -3.51 -1.4 t-1.35 -3.46 q0 -2.14 1.37 -3.49 t3.49 -1.37 z M160.258 20.24 q-1.76 0 -2.64 -0.99 t-0.88 -3.03 l0 -5.46 l1.2 0 l0 5.4 q0 1.5 0.57 2.25 t1.75 0.75 q1.46 0 2.32 -1 t0.88 -2.82 l0 -4.58 l1.2 0 l0 6.74 q0.04 1.02 0.1 2.5 l-1.2 0 q-0.02 -1.14 -0.08 -1.62 l-0.06 0 q-0.4 0.86 -1.27 1.36 t-1.89 0.5 z M179.32 10.52 q0.34 0 0.7 0.1 l-0.14 1.18 q-0.22 -0.08 -0.48 -0.08 q-1.46 0 -2.23 0.9 t-0.77 2.34 l0 5.04 l-1.2 0 l0 -6.74 q0 -0.2 -0.1 -2.5 l1.2 0 q0.04 1.38 0.08 1.62 q1.04 -1.86 2.94 -1.86 z M204.064 10.52 q2.34 0 3.24 1.74 l-1.08 0.64 q-0.68 -1.3 -2.16 -1.3 q-0.8 0 -1.39 0.43 t-0.59 1.05 t0.5 0.99 t1.74 0.59 q1.84 0.32 2.54 0.95 t0.7 1.77 q0 1.3 -0.93 2.08 t-2.43 0.78 q-2.64 -0.02 -3.7 -1.88 l1.06 -0.72 q0.34 0.7 1.11 1.11 t1.57 0.41 q0.92 0 1.52 -0.51 t0.6 -1.19 q0 -0.62 -0.49 -1.02 t-2.13 -0.72 q-1.42 -0.28 -2.14 -0.86 t-0.72 -1.68 q0 -1.18 0.9 -1.92 t2.28 -0.74 z M217.30599999999998 4.880000000000001 l1.2 0 l0 10.08 l4.58 -4.2 l1.76 0 l-4.78 4.24 l5.32 5 l-1.82 0 l-5.06 -4.88 l0 4.88 l-1.2 0 l0 -15.12 z M234.368 10.76 l1.2 0 l0 9.24 l-1.2 0 l0 -9.24 z M234.968 6.199999999999999 q0.4 0 0.65 0.26 t0.25 0.64 t-0.25 0.64 t-0.65 0.26 q-0.38 0 -0.64 -0.26 t-0.26 -0.64 t0.26 -0.64 t0.64 -0.26 z M246.41 4.880000000000001 l1.2 0 l0 15.12 l-1.2 0 l0 -15.12 z M258.452 4.880000000000001 l1.2 0 l0 15.12 l-1.2 0 l0 -15.12 z M272.81399999999996 10.52 q2.34 0 3.24 1.74 l-1.08 0.64 q-0.68 -1.3 -2.16 -1.3 q-0.8 0 -1.39 0.43 t-0.59 1.05 t0.5 0.99 t1.74 0.59 q1.84 0.32 2.54 0.95 t0.7 1.77 q0 1.3 -0.93 2.08 t-2.43 0.78 q-2.64 -0.02 -3.7 -1.88 l1.06 -0.72 q0.34 0.7 1.11 1.11 t1.57 0.41 q0.92 0 1.52 -0.51 t0.6 -1.19 q0 -0.62 -0.49 -1.02 t-2.13 -0.72 q-1.42 -0.28 -2.14 -0.86 t-0.72 -1.68 q0 -1.18 0.9 -1.92 t2.28 -0.74 z M299.17799999999994 15.379999999999999 q0 1.66 1.04 2.72 t2.62 1.06 q1.64 0 2.65 -1.08 t1.01 -2.7 q0 -1.6 -1 -2.68 t-2.68 -1.1 q-1.62 0 -2.62 1.08 t-1.02 2.7 z M302.83799999999997 10.52 q2.12 0 3.48 1.38 t1.38 3.48 q0 2.14 -1.39 3.49 t-3.47 1.37 q-2.18 -0.02 -3.51 -1.4 t-1.35 -3.46 q0 -2.14 1.37 -3.49 t3.49 -1.37 z M322.02 10.52 q1.8 0 2.65 0.97 t0.87 3.05 l0 5.46 l-1.2 0 l0 -5.4 q0 -1.54 -0.57 -2.27 t-1.75 -0.73 q-1.46 0 -2.32 1.01 t-0.88 2.81 l0 4.58 l-1.2 0 l0 -6.74 q-0.02 -0.58 -0.1 -2.5 l1.2 0 q0.04 1.58 0.08 1.62 l0.06 0 q0.4 -0.84 1.27 -1.35 t1.89 -0.51 z M336.182 4.880000000000001 l1.2 0 l0 15.12 l-1.2 0 l0 -15.12 z M348.224 10.76 l1.2 0 l0 9.24 l-1.2 0 l0 -9.24 z M348.82399999999996 6.199999999999999 q0.4 0 0.65 0.26 t0.25 0.64 t-0.25 0.64 t-0.65 0.26 q-0.38 0 -0.64 -0.26 t-0.26 -0.64 t0.26 -0.64 t0.64 -0.26 z M364.46599999999995 10.52 q1.8 0 2.65 0.97 t0.87 3.05 l0 5.46 l-1.2 0 l0 -5.4 q0 -1.54 -0.57 -2.27 t-1.75 -0.73 q-1.46 0 -2.32 1.01 t-0.88 2.81 l0 4.58 l-1.2 0 l0 -6.74 q-0.02 -0.58 -0.1 -2.5 l1.2 0 q0.04 1.58 0.08 1.62 l0.06 0 q0.4 -0.84 1.27 -1.35 t1.89 -0.51 z M385.66799999999995 14.6 q0 -1.26 -0.94 -2.13 t-2.28 -0.87 q-1.3 0 -2.24 0.87 t-1.1 2.13 l6.56 0 z M382.52799999999996 10.52 q1.92 0 3.12 1.24 t1.22 3.2 l0 0.72 l-7.76 0 q0.08 1.56 1.03 2.51 t2.47 0.97 q0.94 0 1.79 -0.45 t1.31 -1.19 l0.88 0.74 q-1.3 1.98 -4 1.98 q-2.12 -0.02 -3.39 -1.38 t-1.29 -3.5 q0 -2.08 1.31 -3.45 t3.31 -1.39 z"></path></g>
			</g>
		</svg>
	